<?xml version="1.0" encoding="UTF-8" standalone="no"?>
<svg
   viewBox="0 0 128 128"
   width="128"
   height="128"
   version="1.1"
   id="svg2"
   sodipodi:docname="activities.svg"
   inkscape:version="1.4.4 (dcaf3e7, 2026-05-05)"
   xmlns:inkscape="http://www.inkscape.org/namespaces/inkscape"
   xmlns:sodipodi="http://sodipodi.sourceforge.net/DTD/sodipodi-0.dtd"
   xmlns="http://www.w3.org/2000/svg"
   xmlns:svg="http://www.w3.org/2000/svg">
  <defs
     id="defs2" />
  <sodipodi:namedview
     id="namedview2"
     pagecolor="#ffffff"
     bordercolor="#000000"
     borderopacity="0.25"
     inkscape:showpageshadow="2"
     inkscape:pageopacity="0.0"
     inkscape:pagecheckerboard="0"
     inkscape:deskcolor="#d1d1d1"
     inkscape:zoom="4.4580873"
     inkscape:cx="34.207495"
     inkscape:cy="51.255165"
     inkscape:window-width="1920"
     inkscape:window-height="1009"
     inkscape:window-x="1912"
     inkscape:window-y="-8"
     inkscape:window-maximized="1"
     inkscape:current-layer="svg2" />
  <rect
     style="fill:#898c99;fill-opacity:1;stroke-width:3.24551"
     id="rect2"
     width="37.59108"
     height="10.944238"
     x="44.02187"
     y="22.031944" />
  <rect
     style="fill:#898c99;fill-opacity:1;stroke-width:2.6004"
     id="rect2-9"
     width="24.132393"
     height="10.944238"
     x="73.302177"
     y="-42.050919"
     transform="rotate(45)" />
  <rect
     style="fill:#898c99;fill-opacity:1;stroke-width:2.6004"
     id="rect2-9-8"
     width="24.132393"
     height="10.944238"
     x="-15.525864"
     y="46.735706"
     transform="matrix(-0.70710678,0.70710678,0.70710678,0.70710678,0,0)" />
  <rect
     style="fill:#898c99;fill-opacity:1;stroke-width:1.93513"
     id="rect2-9-8-21"
     width="21.198069"
     height="6.8996282"
     x="-97.357635"
     y="-12.72792"
     transform="matrix(-0.70710678,-0.70710678,-0.70710678,0.70710678,0,0)" />
  <rect
     style="fill:#898c99;fill-opacity:1;stroke-width:1.93513"
     id="rect2-9-8-21-7"
     width="21.198069"
     height="6.8996282"
     x="-8.3622046"
     y="-83.030075"
     transform="matrix(0.70710678,-0.70710678,-0.70710678,-0.70710678,0,0)" />
  <rect
     style="fill:#898c99;fill-opacity:1;stroke-width:1.93513"
     id="rect2-9-8-21-7-1"
     width="21.198069"
     height="6.8996282"
     x="-8.6163063"
     y="-97.342201"
     transform="matrix(0.70710678,-0.70710678,-0.70710678,-0.70710678,0,0)" />
  <rect
     style="fill:#898c99;fill-opacity:1;stroke-width:1.93513"
     id="rect2-9-8-21-8"
     width="21.198069"
     height="6.8996282"
     x="-97.413345"
     y="1.7279006"
     transform="matrix(-0.70710678,-0.70710678,-0.70710678,0.70710678,0,0)" />
  <rect
     style="fill:#898c99;fill-opacity:1;stroke-width:3.1066"
     id="rect2-9-8-2"
     width="34.442181"
     height="10.944238"
     x="-73.4907"
     y="-37.934818"
     transform="matrix(0,-1,-1,0,0,0)" />
  <rect
     style="fill:#898c99;fill-opacity:1;stroke-width:3.1066"
     id="rect2-9-8-2-5"
     width="34.442181"
     height="10.944238"
     x="-73.611633"
     y="-98.590126"
     transform="matrix(0,-1,-1,0,0,0)" />
  <rect
     style="fill:#898c99;fill-opacity:1;stroke-width:3.5856"
     id="rect2-9-8-2-1"
     width="45.882065"
     height="10.944238"
     x="-38.750771"
     y="-122.74252"
     transform="matrix(0.64278762,-0.76604444,-0.76604444,-0.64278762,0,0)" />
  <rect
     style="fill:#898c99;fill-opacity:1;stroke-width:3.5856"
     id="rect2-9-8-2-1-1"
     width="45.882065"
     height="10.944238"
     x="-119.48566"
     y="-26.617243"
     transform="rotate(-130)" />
  <rect
     style="fill:#898c99;fill-opacity:1;stroke-width:3.95402"
     id="rect3"
     width="12.712667"
     height="9.1967688"
     x="56.387699"
     y="99.429451" />
</svg>
