<?xml version="1.0" encoding="UTF-8" standalone="no"?>
<svg
   viewBox="22 16 86 88"
   width="128"
   height="128"
   fill="currentColor"
   version="1.1"
   id="svg18"
   sodipodi:docname="factions.svg"
   inkscape:version="1.4.4 (dcaf3e7, 2026-05-05)"
   xmlns:inkscape="http://www.inkscape.org/namespaces/inkscape"
   xmlns:sodipodi="http://sodipodi.sourceforge.net/DTD/sodipodi-0.dtd"
   xmlns="http://www.w3.org/2000/svg"
   xmlns:svg="http://www.w3.org/2000/svg">
  <defs
     id="defs18" />
  <sodipodi:namedview
     id="namedview18"
     pagecolor="#ffffff"
     bordercolor="#000000"
     borderopacity="0.25"
     inkscape:showpageshadow="2"
     inkscape:pageopacity="0.0"
     inkscape:pagecheckerboard="0"
     inkscape:deskcolor="#d1d1d1"
     inkscape:zoom="6.0703125"
     inkscape:cx="35.994852"
     inkscape:cy="58.893179"
     inkscape:window-width="1920"
     inkscape:window-height="991"
     inkscape:window-x="-9"
     inkscape:window-y="-9"
     inkscape:window-maximized="1"
     inkscape:current-layer="svg18" />
  <!-- ===== Six faction nodes ===== -->
  <path
     d="M 58,16 H 70 V 28 H 58 Z"
     id="path1"
     style="fill:#00ff00;fill-opacity:1" />
  <path
     d="m 96,28 h 12 V 40 H 96 Z"
     id="path2"
     style="fill:#00ff00;fill-opacity:1" />
  <path
     d="m 96,86 h 12 V 98 H 96 Z"
     id="path3"
     style="fill:#00ff00;fill-opacity:1" />
  <path
     d="m 58,92 h 12 v 12 H 58 Z"
     id="path4"
     style="fill:#00ff00;fill-opacity:1" />
  <path
     d="M 22,86 H 34 V 98 H 22 Z"
     id="path5"
     style="fill:#00ff00;fill-opacity:1" />
  <path
     d="M 22,30 H 34 V 42 H 22 Z"
     id="path6"
     style="fill:#00ff00;fill-opacity:1" />
  <!-- ===== Network connectors ===== -->
  <path
     d="M86 38l3-3 9 9-3 3z"
     id="path8"
     style="fill:#00ff00;fill-opacity:1" />
  <path
     d="M86 90l9-9 3 3-9 9z"
     id="path9"
     style="fill:#00ff00;fill-opacity:1" />
  <path
     d="m 62,80 h 4 v 14.965251 h -4 z"
     id="path10"
     style="stroke-width:1.11674;fill:#00ff00;fill-opacity:1" />
  <path
     d="M30 81l3-3 9 9-3 3z"
     id="path11"
     style="fill:#00ff00;fill-opacity:1" />
  <path
     d="M30 47l9-9 3 3-9 9z"
     id="path12"
     style="fill:#00ff00;fill-opacity:1" />
  <!-- ===== Central upgrade terminal ===== -->
  <path
     d="M 46,76.658945 H 82 V 82 H 46 Z m 4,-10.682111 h 28 v 5.341055 H 50 Z m 4,-10.682111 h 20 v 5.341056 H 54 Z m 6,-17.803517 h 8 v 16.023166 h -8 z m 4,-8.90176 10,8.90176 h -5 v 7.121406 H 59 v -7.121406 h -5 z"
     id="path13"
     style="stroke-width:0.943491;fill:#00ff00;fill-opacity:1" />
  <!-- ===== Side access rails ===== -->
  <path
     d="     M42 50H48V82H42Z     M80 50H86V82H80Z   "
     id="path14"
     style="fill:#00ff00;fill-opacity:1" />
  <!-- ===== Access sockets ===== -->
  <path
     d="M36 60h6v6h-6z"
     id="path15"
     style="fill:#00ff00;fill-opacity:1" />
  <path
     d="M36 72h6v6h-6z"
     id="path16"
     style="fill:#00ff00;fill-opacity:1" />
  <path
     d="M86 60h6v6h-6z"
     id="path17"
     style="fill:#00ff00;fill-opacity:1" />
  <path
     d="M86 72h6v6h-6z"
     id="path18"
     style="fill:#00ff00;fill-opacity:1" />
</svg>
