<svg xmlns="http://www.w3.org/2000/svg" viewBox="0 0 1200 675" role="img" aria-label="Starter tactical map medium">
  <defs>
    <linearGradient id="bg" x1="0" x2="1" y1="0" y2="1">
      <stop offset="0%" stop-color="#0d1118"/>
      <stop offset="100%" stop-color="#06080c"/>
    </linearGradient>
  </defs>
  <rect width="1200" height="675" fill="url(#bg)"/>
  <g stroke="rgba(255,255,255,0.08)" stroke-width="2" fill="none">
    <path d="M90 540 L310 380 L540 420 L780 180 L1080 240"/>
    <path d="M180 150 L380 255 L690 180 L1030 405"/>
    <path d="M180 585 L430 495 L615 570 L840 450 L1065 510"/>
  </g>
  <g stroke="rgba(0,229,91,0.18)" stroke-width="1">
    <path d="M0 135 H1200"/>
    <path d="M0 270 H1200"/>
    <path d="M0 405 H1200"/>
    <path d="M0 540 H1200"/>
    <path d="M240 0 V675"/>
    <path d="M480 0 V675"/>
    <path d="M720 0 V675"/>
    <path d="M960 0 V675"/>
  </g>
  <text x="60" y="90" fill="#c6f500" font-family="Segoe UI, sans-serif" font-size="34" letter-spacing="5">STARTER MAP</text>
</svg>
