<?xml version="1.0" standalone="no"?><!DOCTYPE svg PUBLIC "-//W3C//DTD SVG 1.1//EN" "http://www.w3.org/Graphics/SVG/1.1/DTD/svg11.dtd"><svg t="1742685779937" class="icon" viewBox="0 0 1105 1024" version="1.1" xmlns="http://www.w3.org/2000/svg" p-id="1503" xmlns:xlink="http://www.w3.org/1999/xlink" width="215.8203125" height="200"><path d="M724.689922 848.590001c0 10.85926 1.746149 20.979275-0.420606 30.16886-3.237385 13.727023-9.916085 26.612835-13.918206 40.225147-8.373866 28.473694-26.765782 49.325513-49.083346 67.551736-37.293656 30.4875-80.463039 41.091848-127.634544 36.401463-41.639909-4.142323-78.041373-20.392977-106.668014-51.479521-20.456705-22.215599-35.572999-47.834276-42.608576-77.506057a407.783062 407.783062 0 0 1-11.471049-83.929845c-0.535316-20.711617-5.302174-41.334015-8.526814-61.956413-2.61285-16.760478-4.830586-33.648412-8.858199-50.090249a571.93378 571.93378 0 0 0-17.512469-58.935703c-14.810399-40.785954-33.253298-79.838504-56.616002-116.49488-41.601673-65.283017-95.400895-118.534178-159.014236-162.264367-20.15081-13.841733-40.785954-27.186387-59.713185-42.519357-28.907045-23.37545-47.082285-53.799222-56.794441-90.060483-8.182682-30.589465-7.749331-60.477922 1.414763-90.200686 17.843855-58.081747 53.531564-100.3207 110.886811-123.632422C139.908566 5.009025 162.162402-0.012746 185.206466 0.165693c30.219842 0.229421 58.629808 9.125857 85.051459 23.783309 35.292595 19.615495 70.100858 40.072199 105.482672 59.560238 7.4052 4.078595 8.463085 9.380769 8.45034 16.569294q-0.178439 71.974462 0 143.948925c0 12.019111 0.751991 24.101949-0.293149 36.03184-0.52257 5.939454-4.346253 11.58576-6.742428 17.512469 6.742428 0.713754 7.366963 7.647366 7.124796 15.587882-0.369623 12.42697 0 24.879432-0.11471 37.319147 0 9.801374 2.702069 20.915547-13.408382 23.796055 17.257557 22.687187 13.127979 48.790197 19.360582 72.433305 6.372805 23.923511 16.352618 46.215584 32.998386 64.645736 11.827927 13.089742 23.668599 27.581501 38.555471 36.12106 17.703653 10.196488 38.338796 15.855539 58.311168 21.170459 22.496003 5.990437 45.986163 5.161972 68.443929-0.127456 37.089727-8.730743 69.527305-26.459887 94.100842-56.463054 28.626641-34.948464 40.480059-75.798146 40.569278-120.318563q0.31864-143.426355-0.191184-286.776237c-0.076474-13.204452 4.244288-19.870407 16.135943-26.10301 31.978737-16.785969 62.733895-35.891639 94.25379-53.595292C862.164076 9.062129 893.33984-1.427508 926.478427 0.382368c53.557055 2.727561 98.842209 24.458827 134.147551 65.907552 18.532118 21.794994 31.800298 46.406768 38.236831 73.924541 5.595323 23.910765 9.737646 47.566618 3.823683 73.37648-6.372805 28.358983-15.995741 54.347283-33.278789 77.098198a177.686556 177.686556 0 0 1-32.960149 33.062113c-17.104609 13.140724-36.312244 23.502906-53.824713 36.159297-19.233126 13.892715-38.402524 28.116817-56.080686 43.857646-31.864026 28.320747-61.650518 58.808247-85.854432 94.215553-23.859783 34.897482-45.73125 70.99305-60.22301 110.886811-11.573014 31.864026-22.750915 63.855509-32.220903 96.356815-4.79235 16.467329-5.569832 34.119999-7.889533 51.275591-3.823683 28.040343-7.226761 56.080686-11.228883 84.019065-0.535316 3.428569-3.556025 6.513007-4.435472 8.067971z m-447.370929-778.756801l-2.549122-0.943175c-0.777482 10.425909-1.542219 20.851819-2.345192 31.774807 7.51991 1.758894 12.898558-0.40786 11.598505-5.926709-1.950078-8.348375-4.435472-16.594785-6.691445-24.892177zM119.706774 259.946726c-0.548061-1.758894-1.108868-3.505043-1.65693-5.263937a127.456105 127.456105 0 0 0-12.885812 4.142323c-0.599044 0.254912 0.152947 3.670736 0.280404 5.63356z" fill="#020202" p-id="1504"></path><path d="M553.057531 524.826003c-47.936241-0.892193-81.469942-24.21666-105.240506-62.95057-11.471049-18.608591-16.365364-40.199656-16.569294-61.956412-0.637281-63.243719-1.695166-126.551167 0.229421-189.743904 1.516728-49.644153 28.983518-95.694044 80.794425-112.798653 62.453491-20.596907 119.808739 3.33935 148.486362 59.190615 14.415285 28.040343 14.772163 59.407291 12.885813 90.493835-0.497079 8.055226 0.446096 16.186925 0.458842 24.293133 0 39.447664 1.070631 78.92082-0.344132 118.317503-0.917684 25.338274-2.81678 51.04617-16.569294 73.924541-15.001584 24.930414-35.547508 43.335076-63.090772 52.511915-13.204452 4.448218-27.35208 5.913963-41.040865 8.717997zM277.331739 69.845946c2.255973 8.297392 4.741367 16.569294 6.716937 24.904922 1.274561 5.518849-4.078595 7.647366-11.598506 5.926709 0.802973-10.922988 1.56771-21.348898 2.345192-31.774807zM119.706774 259.946726l-14.262338 4.511946c-0.127456-1.962824-0.879447-5.378648-0.280404-5.63356a127.456105 127.456105 0 0 1 12.885812-4.142323c0.548061 1.758894 1.108868 3.505043 1.65693 5.263937z" fill="#020202" p-id="1505"></path></svg>