<?xml version="1.0" standalone="no"?><!DOCTYPE svg PUBLIC "-//W3C//DTD SVG 1.1//EN" "http://www.w3.org/Graphics/SVG/1.1/DTD/svg11.dtd"><svg t="1742668378276" class="icon" viewBox="0 0 1024 1024" version="1.1" xmlns="http://www.w3.org/2000/svg" p-id="9253" xmlns:xlink="http://www.w3.org/1999/xlink" width="200" height="200"><path d="M205.738667 85.418667c-53.888 1.834667-105.6 27.861333-135.722667 73.728a167.466667 167.466667 0 0 0-22.698667 130.56c10.666667 44.373333 39.68 83.2 81.493334 107.52l2.176 0.853333a418.304 418.304 0 0 1 209.493333 361.813333c0 44.8 15.786667 87.466667 45.226667 120.746667 31.146667 34.986667 72.533333 55.466667 117.333333 57.6 2.986667 0.426667 5.973333 0.426667 8.96 0.426667 44.373333 0 85.76-16.64 118.186667-46.933334 34.133333-32.426667 53.333333-77.653333 53.333333-124.586666v-7.253334c0-148.906667 80.64-287.573333 207.36-360.533333l6.4-3.413333a169.642667 169.642667 0 0 0 79.36-106.24 167.466667 167.466667 0 0 0-22.613333-130.56c-48.213333-73.386667-151.466667-96-230.826667-49.92L682.666667 132.266667V384c0 94.293333-76.373333 170.666667-170.666667 170.666667s-170.666667-76.373333-170.666667-170.666667V132.693333l-40.533333-23.466666a176.682667 176.682667 0 0 0-95.061333-23.808zM512 128a85.333333 85.333333 0 0 0-85.333333 85.333333v170.666667a85.333333 85.333333 0 1 0 170.666666 0V213.333333a85.333333 85.333333 0 0 0-85.333333-85.333333z" p-id="9254"></path></svg>