<svg xmlns="http://www.w3.org/2000/svg" viewBox="0 0 105.9663 118.36611" width="105.9663" height="118.36611">
  <polygon points="0.294348,50.29365 53.130323,0 105.966298,50.29365" fill="#b4ff00"/>
  <rect x="0.294348" y="49.19365" width="105.67195" height="69.172447" fill="#b4ff00"/>
  <polygon points="10.944258,58.08268 53.130323,17.929936 95.316389,58.08268" fill="#000000"/>
  <rect x="10.944258" y="57.28268" width="84.372131" height="54.233418" fill="#000000"/>
  <polygon points="20.181078,63.29851 53.130323,31.918244 86.079569,63.29851" fill="#b4ff00"/>
  <rect x="20.181078" y="62.69851" width="65.898491" height="43.136894" fill="#b4ff00"/>
  <ellipse cx="53.130323" cy="66.94229" rx="23.328369" ry="15.214153" fill="#000000"/>
  <rect x="29.911234" y="65.67016" width="46.438179" height="22.993689" fill="#000000"/>
  <rect x="37.416882" y="71.65803" width="31.426882" height="23.602255" fill="#000000"/>
  <ellipse cx="43.501223" cy="66.94926" rx="2.63712" ry="4.26695" fill="#000000"/>
  <ellipse cx="62.759424" cy="66.94926" rx="2.63712" ry="4.26695" fill="#000000"/>
  <ellipse cx="45.123607" cy="71.38608" rx="3.8542521" ry="7.7085042" fill="#ffffff"/>
  <ellipse cx="61.13704" cy="71.38608" rx="3.8542521" ry="7.7085042" fill="#ffffff"/>
</svg>
