<svg xmlns="http://www.w3.org/2000/svg" viewBox="0 0 105.9663 118.36611" width="105.9663" height="118.36611">
  <polygon points="0.294348,50.29365 53.130323,0 105.966298,50.29365" fill="#b4ff00"/>
  <rect x="0.294348" y="49.19365" width="105.67195" height="69.172447" fill="#b4ff00"/>
  <polygon points="10.944258,58.08268 53.130323,17.929936 95.316389,58.08268" fill="#000000"/>
  <rect x="10.944258" y="57.28268" width="84.372131" height="54.233418" fill="#000000"/>
  <polygon points="20.181078,63.29851 53.130323,31.918244 86.079569,63.29851" fill="#b4ff00"/>
  <rect x="20.181078" y="62.69851" width="65.898491" height="43.136894" fill="#b4ff00"/>
  <rect x="19.968439" y="90.030625" width="18.459839" height="6.4913783" ry="0.507142" fill="#000000"/>
  <rect x="67.832369" y="90.030625" width="18.459839" height="6.4913783" ry="0.507142" fill="#000000"/>
  <rect x="49.884634" y="55.83893" width="6.4913783" height="44.425323" rx="3.245689" ry="3.245689" fill="#000000"/>
  <rect x="27.390262" y="64.206476" width="33.065426" height="6.4913783" rx="3.245689" ry="3.245689" fill="#000000" transform="rotate(132.12422 43.922975 67.452165)"/>
  <rect x="45.804958" y="64.206476" width="33.065426" height="6.4913783" rx="3.245689" ry="3.245689" fill="#000000" transform="rotate(47.87578 62.337671 67.452165)"/>
</svg>
